# xmcd
#
# Track frame offsets:
#	150
#	44031
#	61188
#	90739
#	106893
#	121720
#	139149
#	170198
#	206969
#	219773
#	237050
#	251449
#	268399
#	286070
#	292926
#	308193
#	316950
#
# Disc length: 4247 seconds
#
# Revision: 4
# Processed by: cddbd v1.5.2PL0 Copyright (c) Steve Scherf et al.
# Submitted via: EasyCDDAExtractor 15.3.0.1
#
DISCID=fd109511
DTITLE=Selena - Live (20 Years Of Music)
DYEAR=2002
DGENRE=Latin
TTITLE0=Como La Flor, Baila Esta Cumbia
TTITLE1=Amame, Quiereme, Siempre Estoy Pensando En Ti
TTITLE2=Ven Conmigo, Perdoname
TTITLE3=Que Creias
TTITLE4=Si La Quieres
TTITLE5=Porque Le Gusta Bailar Cumbia
TTITLE6=La Carcacha, Besitos
TTITLE7=Ya Ves, Las Cadenas, Yo Te Amo
TTITLE8=No Debes Jugar
TTITLE9=Tu Robaste Mi Corazon (A Duo Con Emilio Navaira)
TTITLE10=La Llamada
TTITLE11=Intro (Abraham Quintanilla Jr., Chris Perez, Suzette Quintanilla)
TTITLE12=Chris Perez Comments
TTITLE13=The Day Of The Recording (Ricky Vela, Suzette Quintanilla)
TTITLE14=La Llamada, No Debes Jugar, Tu Robaste Mi Corazon (A.B. Quintanilla I
TTITLE14=II, Ricky Vela, Chris Perez)
TTITLE15=Ricky Vela Stories
TTITLE16=Outro (Abraham Quintanilla Jr.)
EXTD=
EXTT0=
EXTT1=
EXTT2=
EXTT3=
EXTT4=
EXTT5=
EXTT6=
EXTT7=
EXTT8=
EXTT9=
EXTT10=
EXTT11=
EXTT12=
EXTT13=
EXTT14=
EXTT15=
EXTT16=
PLAYORDER=
